<svg width="375" height="320" viewBox="0 0 375 320" fill="none" xmlns="http://www.w3.org/2000/svg">
<mask id="mask0_17_43" style="mask-type:alpha" maskUnits="userSpaceOnUse" x="0" y="0" width="375" height="320">
<rect y="0.0983887" width="375" height="319" rx="21" fill="white"/>
</mask>
<g mask="url(#mask0_17_43)">
<path d="M-38.8213 278.446L76.6133 125.604C82.5801 117.802 87.1699 109.769 90.3828 101.508C93.7487 93.0929 95.4316 85.2901 95.4316 78.0994V77.6404C95.4316 66.4718 91.9893 57.8276 85.1045 51.7078C78.3727 45.588 68.734 42.5281 56.1885 42.5281C44.1019 42.5281 34.3102 46.2764 26.8135 53.7732C19.4697 61.1169 15.0329 71.5971 13.5029 85.2136V85.4431H-42.9521V85.2136C-40.8102 65.1713 -35.4554 48.0359 -26.8877 33.8074C-18.32 19.5789 -6.99837 8.71623 7.07715 1.21948C21.1527 -6.27726 37.3701 -10.0256 55.7295 -10.0256C76.0778 -10.0256 93.4427 -6.58325 107.824 0.301514C122.206 7.03328 133.145 16.9014 140.642 29.906C148.291 42.9106 152.116 58.5925 152.116 76.9519V77.1814C152.116 90.6449 149.515 104.338 144.313 118.26C139.265 132.03 132.227 144.958 123.2 157.045L33.6982 274.545H153.952V327.098H-38.8213V278.446Z" fill="#EAEAEA"/>
</g>
</svg>
