<svg width="150" height="320" viewBox="0 0 150 320" fill="none" xmlns="http://www.w3.org/2000/svg">
<path d="M52.9756 330.639C33.5452 330.639 16.3333 327.12 1.33984 320.083C-13.6536 313.045 -25.6637 302.794 -34.6904 289.331C-43.5641 275.714 -48.8424 259.497 -50.5254 240.678H5.7002C6.92415 248.94 9.44857 255.825 13.2734 261.333C17.0983 266.687 22.0706 270.742 28.1904 273.496C34.3102 276.25 41.4245 277.626 49.5332 277.626C63.3027 277.626 73.9359 273.955 81.4326 266.611C88.9294 259.114 92.6777 248.557 92.6777 234.941V225.991C92.6777 211.303 89.3118 199.982 82.5801 192.026C76.0013 183.917 66.5156 179.863 54.123 179.863H28.1904V127.539H54.123C64.6797 127.539 72.7884 124.096 78.4492 117.211C84.263 110.174 87.1699 100.382 87.1699 87.8364V79.8042C87.1699 68.0236 84.0335 58.9969 77.7607 52.7241C71.641 46.2983 62.9202 43.0854 51.5986 43.0854C44.7139 43.0854 38.5176 44.5389 33.0098 47.4458C27.6549 50.3527 23.0651 54.7896 19.2402 60.7563C15.4154 66.5701 12.6615 73.7609 10.9785 82.3286H-45.0176C-42.5697 63.0513 -36.9854 46.4513 -28.2646 32.5288C-19.391 18.6063 -8.06934 8.04964 5.7002 0.858887C19.6227 -6.33187 35.3047 -9.92725 52.7461 -9.92725C81.8151 -9.92725 104.305 -2.354 120.217 12.7925C136.281 27.939 144.313 49.2817 144.313 76.8208V84.6235C144.313 100.688 140.106 114.687 131.691 126.621C123.277 138.554 111.343 147.351 95.8906 153.012C113.026 156.837 126.26 165.558 135.593 179.174C145.078 192.638 149.821 209.85 149.821 230.81V238.613C149.821 258.043 145.996 274.643 138.347 288.413C130.85 302.182 119.834 312.662 105.3 319.853C90.7653 327.044 73.3239 330.639 52.9756 330.639Z" fill="#DEDEDE"/>
</svg>
