<svg width="152" height="320" viewBox="0 0 152 320" fill="none" xmlns="http://www.w3.org/2000/svg">
<path d="M55.041 330.836C37.7526 330.836 22.2236 327.241 8.4541 320.05C-5.16243 312.859 -16.1781 302.379 -24.5928 288.609C-33.0075 274.687 -38.2858 258.163 -40.4277 239.039V238.81H14.4209V239.039C15.7979 251.279 20.0817 260.841 27.2725 267.726C34.4632 274.457 43.8724 277.823 55.5 277.823C68.5046 277.823 78.5257 273.539 85.5635 264.972C92.7542 256.404 96.3496 244.241 96.3496 228.482V200.484C96.3496 184.879 92.9072 172.792 86.0225 164.225C79.2907 155.657 69.7285 151.373 57.3359 151.373C48.7682 151.373 40.9655 153.668 33.9277 158.258C27.043 162.848 21.6117 169.273 17.6338 177.535H-33.084V-6.28809H141.56V46.2656H21.7646V113.277C26.9665 108.535 33.3923 104.863 41.042 102.262C48.8447 99.6608 56.6475 98.3604 64.4502 98.3604C82.6566 98.3604 98.262 102.338 111.267 110.294C124.271 118.25 134.139 129.877 140.871 145.177C147.756 160.476 151.198 178.912 151.198 200.484V228.482C151.198 250.055 147.373 268.491 139.724 283.79C132.227 299.09 121.288 310.794 106.906 318.902C92.5247 326.858 75.2363 330.836 55.041 330.836Z" fill="#DEDEDE"/>
</svg>
