<svg width="375" height="320" viewBox="0 0 375 320" fill="none" xmlns="http://www.w3.org/2000/svg">
<mask id="mask0_17_75" style="mask-type:alpha" maskUnits="userSpaceOnUse" x="0" y="0" width="375" height="320">
<rect y="0.491943" width="375" height="319" rx="21" fill="white"/>
</mask>
<g mask="url(#mask0_17_75)">
<path d="M54.7705 330.934C34.7282 330.934 17.5928 327.033 3.36426 319.23C-10.8643 311.274 -21.7269 299.8 -29.2236 284.806C-36.7204 269.66 -40.4688 251.454 -40.4688 230.187V229.958C-40.4688 217.718 -39.0153 204.867 -36.1084 191.403C-33.0485 177.787 -28.7646 164.247 -23.2568 150.783C-22.3389 148.488 -21.4209 146.27 -20.5029 144.128C-19.432 141.833 -18.361 139.614 -17.29 137.472L52.9346 -6.1897H113.521L30.9033 160.192L23.1006 151.93C26.9255 144.74 32.5098 139.155 39.8535 135.177C47.1973 131.2 55.765 129.211 65.5566 129.211C83.304 129.211 98.527 133.112 111.226 140.915C123.924 148.718 133.563 160.116 140.142 175.109C146.873 189.95 150.239 207.85 150.239 228.81V229.04C150.239 250.459 146.491 268.818 138.994 284.118C131.497 299.417 120.558 311.045 106.177 319.001C91.9482 326.956 74.8128 330.934 54.7705 330.934ZM54.7705 278.151C67.7751 278.151 77.7962 274.25 84.834 266.447C91.8717 258.644 95.3906 247.476 95.3906 232.941V232.712C95.3906 216.494 91.7952 204.025 84.6045 195.304C77.4137 186.431 67.0866 181.994 53.623 181.994C41.0775 181.994 31.3623 186.431 24.4775 195.304C17.7458 204.178 14.3799 216.724 14.3799 232.941V233.171C14.3799 247.705 17.8988 258.874 24.9365 266.677C31.9743 274.326 41.9189 278.151 54.7705 278.151Z" fill="#EAEAEA"/>
</g>
</svg>
